ply
format ascii 1.0
element vertex 24
property float x
property float y
property float z
property float nx
property float ny
property float nz
property float s
property float t
element face 12
property list uchar int vertex_index
end_header
-0.75 0.25 -0.75 0 1 0 0.875 0.5
0.25 0.25 0.25 0 1 0 0.625 0.75
0.25 0.25 -0.75 0 1 0 0.625 0.5
0.25 0.25 0.25 0 0 1 0.625 0.75
-0.75 -0.75 0.25 0 0 1 0.375 1
0.25 -0.75 0.25 0 0 1 0.375 0.75
-0.75 0.25 0.25 -1 0 0 0.625
-0.75 -0.75 -0.75 -1 0 0 0.375 0.25
-0.75 -0.75 0.25 -1 0 0 0.375
0.25 -0.75 -0.75 0 -1 0 0.375 0.5
-0.75 -0.75 0.25 0 -1 0 0.125 0.75
-0.75 -0.75 -0.75 0 -1 0 0.125 0.5
0.25 0.25 -0.75 1 0 0 0.625 0.5
0.25 -0.75 0.25 1 0 0 0.375 0.75
0.25 -0.75 -0.75 1 0 0 0.375 0.5
-0.75 0.25 -0.75 0 0 -1 0.625 0.25
0.25 -0.75 -0.75 0 0 -1 0.375 0.5
-0.75 -0.75 -0.75 0 0 -1 0.375 0.25
-0.75 0.25 0.25 0 1 0 0.875 0.75
-0.75 0.25 0.25 0 0 1 0.625 1
-0.75 0.25 -0.75 -1 0 0 0.625 0.25
0.25 -0.75 0.25 0 -1 0 0.375 0.75
0.25 0.25 0.25 1 0 0 0.625 0.75
0.25 0.25 -0.75 0 0 -1 0.625 0.5
3 0 1 2
3 0 18 1
3 3 4 5
3 3 19 4
3 6 7 8
3 6 20 7
3 9 10 11
3 9 21 10
3 12 13 14
3 12 22 13
3 15 16 17
3 15 23 16
